<?xml version="1.0" encoding="UTF-8"?>
<svg version="1.1" xmlns="http://www.w3.org/2000/svg" width="512" height="512">
<path d="M0 0 C3.10011054 2.45190561 6.05144816 5.00694919 8.9296875 7.71484375 C12.86891232 11.35038384 15.42434196 12.81240281 21.015625 12.9140625 C21.85996094 12.75550781 22.70429688 12.59695312 23.57421875 12.43359375 C45.50753132 9.12243533 68.02463595 13.55803502 86.4609375 26.00390625 C94.20854413 31.79684148 100.77973143 38.54595362 107.015625 45.9140625 C107.90121094 45.52734375 108.78679687 45.140625 109.69921875 44.7421875 C123.92627027 38.69102089 140.8964713 32.58749421 156.48046875 36.5390625 C162.51474412 39.13345345 167.27020392 44.44067456 170.1875 50.24609375 C175.38492928 66.99064185 167.04803853 86.0334102 160.015625 100.9140625 C159.1978748 102.74506003 158.38429827 104.57793832 157.578125 106.4140625 C157.0625 107.5690625 156.546875 108.7240625 156.015625 109.9140625 C156.59828125 110.1821875 157.1809375 110.4503125 157.78125 110.7265625 C171.56504025 118.05221326 180.15286328 133.91185154 185.1484375 148.140625 C190.79238189 168.03141931 188.66740674 188.62990068 179.015625 206.9140625 C176.5605679 210.77060929 173.8812562 214.35532132 171.015625 217.9140625 C170.54640625 218.54699219 170.0771875 219.17992187 169.59375 219.83203125 C159.05220538 233.38101654 141.57738628 241.2396154 125.015625 243.9140625 C123.81421875 244.03652344 122.6128125 244.15898437 121.375 244.28515625 C113.15907497 245.13296979 108.41915246 246.52458335 103.015625 252.9140625 C102.41621094 253.70554687 101.81679688 254.49703125 101.19921875 255.3125 C86.1871633 273.19806159 61.46561005 282.03057818 39.015625 284.9140625 C34.99754052 285.11048321 31.0326131 285.11947666 27.015625 284.9140625 C27.1717627 285.75670654 27.32790039 286.59935059 27.48876953 287.4675293 C28.03114498 291.01558963 28.27257583 294.47395683 28.4453125 298.05859375 C28.51729094 299.46112342 28.58973823 300.8636291 28.66259766 302.26611328 C28.71809784 303.35910736 28.71809784 303.35910736 28.77471924 304.47418213 C29.55932118 319.72124139 30.91551207 334.78399038 33.015625 349.9140625 C42.34457875 353.25777352 51.61778094 356.25597999 61.328125 358.2890625 C62.12130127 358.45631836 62.91447754 358.62357422 63.73168945 358.79589844 C67.5477392 359.55853436 71.10249871 360.11713891 75.015625 359.9140625 C75.17417969 358.98207031 75.33273437 358.05007813 75.49609375 357.08984375 C79.64641526 334.41212013 90.48119705 314.97034113 109.32519531 301.07958984 C123.49542987 291.30941367 139.68340223 285.44764647 157.015625 286.9140625 C162.06502302 289.26464434 165.51528422 292.91338094 168.015625 297.9140625 C169.68403544 315.5007496 162.94638385 333.25103006 152.265625 347.1015625 C151.19367651 348.38201356 150.11173358 349.65423138 149.015625 350.9140625 C148.21125 351.9246875 147.406875 352.9353125 146.578125 353.9765625 C146.0625 354.6159375 145.546875 355.2553125 145.015625 355.9140625 C145.62148438 355.80707031 146.22734375 355.70007813 146.8515625 355.58984375 C155.0327434 354.41930556 161.28641278 355.59210018 168.328125 359.9765625 C173.46851775 365.59513132 176.28478778 371.23390911 176.640625 378.9140625 C176.3087517 385.70873159 174.43364234 391.68882732 169.39672852 396.44165039 C164.25495067 400.665739 159.4155831 402.32689755 152.953125 403.6015625 C151.99559326 403.80233398 151.03806152 404.00310547 150.05151367 404.20996094 C115.37424233 411.22734114 80.79151939 411.19886269 46.015625 404.9140625 C52.11006959 419.98360554 58.62089571 433.79548918 68.390625 446.8515625 C74.62699732 455.3116612 76.14769211 462.33114298 75.015625 472.9140625 C73.13532239 480.5627511 69.41692396 486.66400874 63.07421875 491.34765625 C43.02304043 503.09939032 5.7666976 500.74426827 -16.02734375 495.125 C-22.85903823 493.13003383 -29.17485735 490.29417643 -35.546875 487.1640625 C-44.11421637 484.04866564 -51.62319584 484.51489153 -59.984375 487.9140625 C-61.6971748 488.71710415 -63.40534818 489.53006897 -65.109375 490.3515625 C-76.4420151 495.69501531 -89.41947446 498.03795988 -101.875 498.1171875 C-102.61338104 498.12420181 -103.35176208 498.13121613 -104.11251831 498.13844299 C-106.48653296 498.15587401 -108.86029869 498.16229567 -111.234375 498.1640625 C-112.04195251 498.16473724 -112.84953003 498.16541199 -113.68157959 498.16610718 C-149.61102127 498.11831084 -149.61102127 498.11831084 -160.76953125 488.3515625 C-166.64254621 482.11779724 -169.20706192 475.49931782 -169.484375 466.9765625 C-169.09688182 456.02107354 -165.01899947 449.71750824 -158.41796875 441.23046875 C-150.16839018 430.29160025 -144.87233046 417.61331656 -139.984375 404.9140625 C-140.71213135 405.02999756 -141.4398877 405.14593262 -142.18969727 405.26538086 C-176.9225417 410.71938869 -230.74022259 417.83823614 -262.234375 397.8515625 C-267.64530495 392.77314779 -270.26971412 386.24507653 -270.609375 378.9140625 C-270.26484999 371.86036628 -268.11337696 366.12979585 -263.15234375 361.03125 C-256.98685397 355.99670805 -251.32790555 354.54889835 -243.484375 355.2890625 C-241.98252087 355.48357975 -240.48165671 355.68701568 -238.984375 355.9140625 C-239.8196875 354.96660156 -239.8196875 354.96660156 -240.671875 354 C-253.63109573 338.80794057 -262.44917026 321.34326232 -262.265625 301.015625 C-261.77245652 295.57707256 -259.30762537 293.07978306 -255.359375 289.6015625 C-249.74154069 285.60994339 -243.67094743 286.45360991 -236.984375 286.9140625 C-223.43166619 289.30482125 -209.43734595 295.90842599 -198.984375 304.9140625 C-197.93443359 305.73390625 -197.93443359 305.73390625 -196.86328125 306.5703125 C-180.86959241 319.65353803 -171.57013793 339.71438972 -168.984375 359.9140625 C-161.13606772 359.45121115 -153.87274942 358.1056683 -146.296875 356.0390625 C-144.82637695 355.65427734 -144.82637695 355.65427734 -143.32617188 355.26171875 C-137.73723009 353.7718334 -132.36177166 352.04460874 -126.984375 349.9140625 C-124.78197029 334.04703856 -123.44321807 318.2547012 -122.63134766 302.26611328 C-122.59450867 301.55699295 -122.55766968 300.84787262 -122.51971436 300.11726379 C-122.42054451 298.18489846 -122.32701812 296.25224585 -122.23388672 294.31958008 C-122.00013347 291.12914556 -121.56685415 288.05758647 -120.984375 284.9140625 C-121.665 284.94886719 -122.345625 284.98367188 -123.046875 285.01953125 C-149.81959185 285.76717361 -175.25829575 274.41242493 -194.56298828 256.31689453 C-197.04747946 253.86483573 -199.27961633 251.23808411 -201.359375 248.4375 C-205.44854772 244.60390057 -211.28858303 244.55330078 -216.609375 244.0390625 C-235.25472709 241.92556643 -251.97243294 233.17554491 -264.48828125 219.09765625 C-277.48632769 202.58068015 -283.40515279 183.95074007 -281.984375 162.9140625 C-279.3875206 142.56862839 -270.05891782 125.25805577 -254.546875 111.7890625 C-251.984375 109.9140625 -251.984375 109.9140625 -249.984375 109.9140625 C-250.36190918 109.09953613 -250.36190918 109.09953613 -250.74707031 108.26855469 C-260.37438963 87.41671643 -260.37438963 87.41671643 -262.984375 77.9140625 C-263.20738281 77.11613281 -263.43039062 76.31820312 -263.66015625 75.49609375 C-265.6628943 67.14453985 -267.02143401 56.45852415 -263.484375 48.4140625 C-259.93782743 42.6335686 -254.47026263 37.92725163 -247.984375 35.9140625 C-233.53867041 34.38409871 -219.4465535 37.8527885 -206.40234375 43.9609375 C-203.79732822 45.15854359 -203.79732822 45.15854359 -199.984375 44.9140625 C-198.21592212 43.41114187 -198.21592212 43.41114187 -196.671875 41.3515625 C-196.05828125 40.61679687 -195.4446875 39.88203125 -194.8125 39.125 C-194.20921875 38.39539062 -193.6059375 37.66578125 -192.984375 36.9140625 C-181.09915701 23.00713217 -161.06457381 13.62613988 -142.984375 11.9140625 C-133.29491582 11.42487888 -123.54275561 11.39266967 -113.93139648 12.80175781 C-110.31872723 13.01013748 -108.03792814 11.72357547 -104.984375 9.9140625 C-103.93542401 8.90071559 -102.91658199 7.8557059 -101.921875 6.7890625 C-75.85468704 -20.67147181 -29.76282808 -20.80281439 0 0 Z " fill="#71D88B" transform="translate(302.984375,14.0859375)"/>
<path d="M0 0 C2.77627713 1.43433652 5.27169695 3.08255499 7.83984375 4.86328125 C26.58057235 17.53470096 46.62283559 22.49231871 69 24 C69.81439351 28.39511956 70.214613 32.68129816 70.4296875 37.14453125 C70.50166594 38.54706092 70.57411323 39.9495666 70.64697266 41.35205078 C70.68397278 42.0807135 70.7209729 42.80937622 70.75909424 43.56011963 C71.54369618 58.80717889 72.89988707 73.86992788 75 89 C84.32895375 92.34371102 93.60215594 95.34191749 103.3125 97.375 C104.5022644 97.62588379 104.5022644 97.62588379 105.71606445 97.88183594 C109.5321142 98.64447186 113.08687371 99.20307641 117 99 C117.15855469 98.06800781 117.31710937 97.13601563 117.48046875 96.17578125 C121.63079026 73.49805763 132.46557205 54.05627863 151.30957031 40.16552734 C165.47980487 30.39535117 181.66777723 24.53358397 199 26 C204.04939802 28.35058184 207.49965922 31.99931844 210 37 C211.66841044 54.5866871 204.93075885 72.33696756 194.25 86.1875 C193.17805151 87.46795106 192.09610858 88.74016888 191 90 C190.195625 91.010625 189.39125 92.02125 188.5625 93.0625 C188.046875 93.701875 187.53125 94.34125 187 95 C187.60585938 94.89300781 188.21171875 94.78601563 188.8359375 94.67578125 C197.0171184 93.50524306 203.27078778 94.67803768 210.3125 99.0625 C215.45289275 104.68106882 218.26916278 110.31984661 218.625 118 C218.2931267 124.79466909 216.41801734 130.77476482 211.38110352 135.52758789 C206.23932567 139.7516765 201.3999581 141.41283505 194.9375 142.6875 C193.50120239 142.98865723 193.50120239 142.98865723 192.03588867 143.29589844 C157.35861733 150.31327864 122.77589439 150.28480019 88 144 C94.09444459 159.06954304 100.60527071 172.88142668 110.375 185.9375 C116.61137232 194.3975987 118.13206711 201.41708048 117 212 C115.11969739 219.6486886 111.40129896 225.74994624 105.05859375 230.43359375 C85.00741543 242.18532782 47.7510726 239.83020577 25.95703125 234.2109375 C19.12533677 232.21597133 12.80951765 229.38011393 6.4375 226.25 C-2.12984137 223.13460314 -9.63882084 223.60082903 -18 227 C-19.7127998 227.80304165 -21.42097318 228.61600647 -23.125 229.4375 C-34.4576401 234.78095281 -47.43509946 237.12389738 -59.890625 237.203125 C-60.62900604 237.21013931 -61.36738708 237.21715363 -62.12814331 237.22438049 C-64.50215796 237.24181151 -66.87592369 237.24823317 -69.25 237.25 C-70.05757751 237.25067474 -70.86515503 237.25134949 -71.69720459 237.25204468 C-107.62664627 237.20424834 -107.62664627 237.20424834 -118.78515625 227.4375 C-124.65817121 221.20373474 -127.22268692 214.58525532 -127.5 206.0625 C-127.11250682 195.10701104 -123.03462447 188.80344574 -116.43359375 180.31640625 C-108.18401518 169.37753775 -102.88795546 156.69925406 -98 144 C-99.09163452 144.17390259 -99.09163452 144.17390259 -100.20532227 144.35131836 C-134.9381667 149.80532619 -188.75584759 156.92417364 -220.25 136.9375 C-225.66092995 131.85908529 -228.28533912 125.33101403 -228.625 118 C-228.28047499 110.94630378 -226.12900196 105.21573335 -221.16796875 100.1171875 C-215.00247897 95.08264555 -209.34353055 93.63483585 -201.5 94.375 C-199.99814587 94.56951725 -198.49728171 94.77295318 -197 95 C-197.8353125 94.05253906 -197.8353125 94.05253906 -198.6875 93.0859375 C-211.64672073 77.89387807 -220.46479526 60.42919982 -220.28125 40.1015625 C-219.78808152 34.66301006 -217.32325037 32.16572056 -213.375 28.6875 C-207.75716569 24.69588089 -201.68657243 25.53954741 -195 26 C-181.44729119 28.39075875 -167.45297095 34.99436349 -157 44 C-156.30003906 44.5465625 -155.60007812 45.093125 -154.87890625 45.65625 C-138.88521741 58.73947553 -129.58576293 78.80032722 -127 99 C-119.15169272 98.53714865 -111.88837442 97.1916058 -104.3125 95.125 C-103.33216797 94.86847656 -102.35183594 94.61195313 -101.34179688 94.34765625 C-95.75285509 92.8577709 -90.37739666 91.13054624 -85 89 C-82.79759529 73.13297606 -81.45884307 57.3406387 -80.64697266 41.35205078 C-80.61013367 40.64293045 -80.57329468 39.93381012 -80.53533936 39.20320129 C-80.43616951 37.27083596 -80.34264312 35.33818335 -80.24951172 33.40551758 C-80.01575847 30.21508306 -79.58247915 27.14352397 -79 24 C-78.3922876 23.93530518 -77.7845752 23.87061035 -77.15844727 23.80395508 C-54.29402394 21.29504925 -35.41118984 16.25959866 -16.125 3.5 C-10.62729174 0.08085878 -6.40962644 -1.87247514 0 0 Z " fill="#E9A882" transform="translate(261,275)"/>
<path d="M0 0 C0 0.66 0 1.32 0 2 C-0.66 2 -1.32 2 -2 2 C-2.26167969 2.56074219 -2.52335938 3.12148438 -2.79296875 3.69921875 C-4.11917629 6.22716775 -5.68699213 8.46614607 -7.3125 10.8125 C-17.74353028 27.03612747 -19.70176892 48.56320164 -16.12890625 67.2734375 C-13.36286146 79.37338668 -8.61959951 90.85800052 0 100 C0.70125 99.175 1.4025 98.35 2.125 97.5 C5 95 5 95 7.8125 94.375 C11.01463381 95.00286938 12.26908813 95.74193143 14.875 97.5625 C17.81356658 99.5402733 19.62673502 100.38437706 23.1875 100.0625 C27.14739658 98.95892227 28.87757509 97.54724137 32 95 C35.66322334 94.40192272 37.26456309 94.51615993 40.375 96.5625 C42 99 42 99 42.75 102.3125 C41.78920887 107.03638971 39.86508976 108.53475664 36.23828125 111.51953125 C31.36601895 114.74219689 26.95915194 115.41592373 21.1875 115.4375 C20.11628906 115.44330078 20.11628906 115.44330078 19.0234375 115.44921875 C13.75781209 115.33370229 10.80733535 114.25558124 6.703125 111.1328125 C4.33161788 109.55543391 2.08491686 109.31724883 -0.7265625 109.51171875 C-9.44539678 111.38432061 -17.59503294 115.18608105 -22.8125 122.5625 C-25.3656569 127.80319048 -25.76050114 133.25303114 -25 139 C-21.68009433 147.25683436 -15.08434987 151.8059976 -7.1484375 155.203125 C-5.04236926 156.07702871 -5.04236926 156.07702871 -2.86328125 156.26953125 C-1 157 -1 157 0.16796875 159.37109375 C0.50441406 160.38300781 0.84085938 161.39492187 1.1875 162.4375 C5.28891609 172.95363089 12.75771305 180.32315664 23 185 C25.64288101 185.8747825 28.25764495 186.63112944 30.96875 187.26171875 C33 188 33 188 35 191 C35.13183594 193.28979492 35.13183594 193.28979492 34.984375 195.98046875 C34.19059163 216.63226185 38.69919777 231.5284222 52.07421875 247.47265625 C56.21768946 251.82777773 60.74904845 255.09521829 66 258 C56.58924789 268.50361364 34.35159733 272.02503549 21 273 C-8.51038078 274.4941965 -35.81211105 267.08368212 -58.3269043 247.39453125 C-62.03207221 244.04590956 -65.39015257 240.54280591 -68.375 236.5234375 C-72.46417272 232.68983807 -78.30420803 232.63923828 -83.625 232.125 C-102.27035209 230.01150393 -118.98805794 221.26148241 -131.50390625 207.18359375 C-144.50195269 190.66661765 -150.42077779 172.03667757 -149 151 C-146.4031456 130.65456589 -137.07454282 113.34399327 -121.5625 99.875 C-119 98 -119 98 -117 98 C-117.37753418 97.18547363 -117.37753418 97.18547363 -117.76269531 96.35449219 C-127.39001463 75.50265393 -127.39001463 75.50265393 -130 66 C-130.22300781 65.20207031 -130.44601563 64.40414062 -130.67578125 63.58203125 C-132.6785193 55.23047735 -134.03705901 44.54446165 -130.5 36.5 C-126.95345243 30.7195061 -121.48588763 26.01318913 -115 24 C-100.55429541 22.47003621 -86.4621785 25.938726 -73.41796875 32.046875 C-70.81295322 33.24448109 -70.81295322 33.24448109 -67 33 C-65.23154712 31.49707937 -65.23154712 31.49707937 -63.6875 29.4375 C-63.07390625 28.70273437 -62.4603125 27.96796875 -61.828125 27.2109375 C-61.22484375 26.48132813 -60.6215625 25.75171875 -60 25 C-45.967371 8.58037741 -21.35131001 -1.32830731 0 0 Z " fill="#00C67E" transform="translate(170,26)"/>
<path d="M0 0 C4.9809081 4.84983157 7.52460252 8.02970256 7.6875 15 C7.47680106 32.43054847 -0.28703053 49.28101104 -11.625 62.3125 C-12.429375 63.323125 -13.23375 64.33375 -14.0625 65.375 C-14.578125 66.014375 -15.09375 66.65375 -15.625 67.3125 C-14.71621094 67.15201172 -14.71621094 67.15201172 -13.7890625 66.98828125 C-5.6078816 65.81774306 0.64578778 66.99053768 7.6875 71.375 C12.82789275 76.99356882 15.64416278 82.63234661 16 90.3125 C15.6681267 97.10716909 13.79301734 103.08726482 8.75610352 107.84008789 C3.61432567 112.0641765 -1.2250419 113.72533505 -7.6875 115 C-9.12379761 115.30115723 -9.12379761 115.30115723 -10.58911133 115.60839844 C-42.43272125 122.05235176 -75.00361743 123.21683653 -107.0625 117.5625 C-108.30567993 117.36394409 -108.30567993 117.36394409 -109.57397461 117.16137695 C-113.52814223 116.37256065 -115.12576748 116.02258849 -117.51171875 112.62890625 C-117.87910156 111.53449219 -118.24648438 110.44007813 -118.625 109.3125 C-119.02460938 108.18199219 -119.42421875 107.05148437 -119.8359375 105.88671875 C-120.23344388 104.59402465 -120.62090136 103.29821168 -121 102 C-121.31263794 100.9330188 -121.31263794 100.9330188 -121.6315918 99.84448242 C-123.55689544 93.00702941 -125.02920932 86.08495273 -126.4375 79.125 C-126.65647949 78.05016357 -126.87545898 76.97532715 -127.10107422 75.86791992 C-127.30104004 74.84545166 -127.50100586 73.8229834 -127.70703125 72.76953125 C-127.88468018 71.86178955 -128.0623291 70.95404785 -128.24536133 70.01879883 C-128.65683509 67.08555983 -128.68882989 64.27067566 -128.625 61.3125 C-128.00681396 61.50884033 -127.38862793 61.70518066 -126.75170898 61.9074707 C-106.61314924 68.89113219 -106.61314924 68.89113219 -85.625 71.3125 C-85.46644531 70.38050781 -85.30789063 69.44851563 -85.14453125 68.48828125 C-80.99420974 45.81055763 -70.15942795 26.36877863 -51.31542969 12.47802734 C-37.95698432 3.26756834 -15.98045206 -7.43917596 0 0 Z " fill="#E5886D" transform="translate(463.625,302.6875)"/>
<path d="M0 0 C9.90306838 3.78771205 19.58338142 8.44335072 27.65625 15.3984375 C28.35621094 15.945 29.05617188 16.4915625 29.77734375 17.0546875 C45.77103259 30.13791303 55.07048707 50.19876472 57.65625 70.3984375 C65.48709742 69.93712383 72.72493511 68.59435268 80.28125 66.5234375 C81.25320312 66.26691406 82.22515625 66.01039063 83.2265625 65.74609375 C89.11293796 64.17164655 94.90209321 62.40245289 100.65625 60.3984375 C99.51122237 72.30069839 97.66004837 83.8196312 94.65625 95.3984375 C94.45016113 96.22214844 94.24407227 97.04585938 94.03173828 97.89453125 C93.3891162 100.39003898 92.68924867 102.86190894 91.96875 105.3359375 C91.7737793 106.09962646 91.57880859 106.86331543 91.37792969 107.65014648 C90.40051168 110.78336164 89.67624378 112.79600368 86.78125 114.50585938 C84.41592075 115.34884449 82.11989008 115.91501447 79.65625 116.3984375 C78.50394897 116.63663208 78.50394897 116.63663208 77.32836914 116.87963867 C74.90142245 117.32931748 72.47705594 117.69167128 70.03125 118.0234375 C69.1222998 118.14678467 68.21334961 118.27013184 67.27685547 118.3972168 C37.46181613 122.20377176 -9.12292358 125.13473119 -35.59375 108.3359375 C-41.00467995 103.25752279 -43.62908912 96.72945153 -43.96875 89.3984375 C-43.62422499 82.34474128 -41.47275196 76.61417085 -36.51171875 71.515625 C-30.34622897 66.48108305 -24.68728055 65.03327335 -16.84375 65.7734375 C-15.34189587 65.96795475 -13.84103171 66.17139068 -12.34375 66.3984375 C-13.1790625 65.45097656 -13.1790625 65.45097656 -14.03125 64.484375 C-26.99047073 49.29231557 -35.80854526 31.82763732 -35.625 11.5 C-35.13183152 6.06144756 -32.66700037 3.56415806 -28.71875 0.0859375 C-20.63685609 -5.6564608 -8.84631807 -2.80930371 0 0 Z " fill="#E5886D" transform="translate(76.34375,303.6015625)"/>
<path d="M0 0 C2.77627713 1.43433652 5.27169695 3.08255499 7.83984375 4.86328125 C26.58057235 17.53470096 46.62283559 22.49231871 69 24 C70.04238365 29.32579212 70.32558036 34.59268628 70.5625 40 C70.6049585 40.92321045 70.64741699 41.8464209 70.69116211 42.79760742 C71.01120199 50.2036007 71.11213042 57.58693316 71 65 C46.03544507 66.45142761 20.13165361 60.65848316 -1.45703125 47.87109375 C-5.77843064 46.39079872 -8.84054004 48.46237332 -12.796875 50.296875 C-13.77140625 50.77640625 -14.7459375 51.2559375 -15.75 51.75 C-21.15222729 54.27764763 -26.59314222 56.36281396 -32.25 58.25 C-32.98186523 58.49588867 -33.71373047 58.74177734 -34.46777344 58.99511719 C-42.04314797 61.46349765 -49.66109872 63.08685969 -57.5625 64.125 C-58.78066406 64.29257812 -59.99882812 64.46015625 -61.25390625 64.6328125 C-68.13033284 65.33650718 -75.09713917 65.06628767 -82 65 C-81.73773943 60.12508372 -81.47108244 55.25043467 -81.20043945 50.37597656 C-81.1090759 48.71946648 -81.0188909 47.06289094 -80.92993164 45.40625 C-80.80147951 43.018045 -80.66871937 40.63011147 -80.53515625 38.2421875 C-80.49656998 37.50757294 -80.4579837 36.77295837 -80.41822815 36.01608276 C-80.18613764 31.94945462 -79.75169387 28.00352705 -79 24 C-78.3922876 23.93530518 -77.7845752 23.87061035 -77.15844727 23.80395508 C-54.29402394 21.29504925 -35.41118984 16.25959866 -16.125 3.5 C-10.62729174 0.08085878 -6.40962644 -1.87247514 0 0 Z " fill="#E5886E" transform="translate(261,275)"/>
<path d="M0 0 C4.9809081 4.84983157 7.52460252 8.02970256 7.6875 15 C7.47582011 32.51169992 -0.33021119 49.18376352 -11.625 62.3125 C-12.285 63.26125 -12.945 64.21 -13.625 65.1875 C-18.11765366 69.96094451 -24.71511704 70.93919608 -30.9375 71.9375 C-31.63294922 72.05867188 -32.32839844 72.17984375 -33.04492188 72.3046875 C-42.99035376 73.98201057 -52.78102346 74.49903878 -62.8671875 74.49780273 C-64.88562447 74.50001163 -66.90353251 74.51830342 -68.921875 74.53710938 C-70.85546875 74.54000977 -70.85546875 74.54000977 -72.828125 74.54296875 C-73.98989258 74.54707764 -75.15166016 74.55118652 -76.34863281 74.55541992 C-79.73988556 74.30398203 -82.45987363 73.523878 -85.625 72.3125 C-81.79295632 48.04289002 -71.5656725 27.40538419 -51.31542969 12.47802734 C-37.95698432 3.26756834 -15.98045206 -7.43917596 0 0 Z " fill="#72D88B" transform="translate(463.625,302.6875)"/>
<path d="M0 0 C9.90306838 3.78771205 19.58338142 8.44335072 27.65625 15.3984375 C28.35621094 15.945 29.05617188 16.4915625 29.77734375 17.0546875 C45.01949362 29.52313592 54.70716729 48.91437829 57.46875 68.2109375 C57.530625 69.2628125 57.5925 70.3146875 57.65625 71.3984375 C52.9824382 76.0722493 37.8264217 73.70547057 31.859375 73.72192383 C22.84948247 73.67530479 14.07345352 72.96594278 5.15625 71.5859375 C4.0839917 71.4206958 3.0117334 71.2554541 1.90698242 71.08520508 C-9.57881914 69.11988353 -14.60747898 64.7949647 -21.34375 55.3984375 C-30.61344097 41.32777756 -36.8968565 25.5257508 -35.34375 8.3984375 C-28.45861323 -6.13685124 -13.18684859 -4.18771543 0 0 Z " fill="#72D88B" transform="translate(76.34375,303.6015625)"/>
<path d="M0 0 C5.81848703 4.76903389 10.23495076 9.90814336 11.046875 17.57421875 C11.25905217 37.00964732 4.58216515 53.36958666 -4.2890625 70.40234375 C-8.8466691 68.60666385 -13.34127647 66.67607596 -17.83154297 64.71875 C-22.22410909 62.81702726 -26.65533198 61.14240563 -31.203125 59.65234375 C-35.31116841 57.19059489 -36.99359299 53.54712249 -38.16015625 49.02734375 C-38.34707031 47.83109375 -38.53398437 46.63484375 -38.7265625 45.40234375 C-41.09272873 32.08627814 -46.28328395 20.8410591 -53.2890625 9.40234375 C-43.754427 -1.4898723 -12.47823682 -7.65586145 0 0 Z " fill="#00C67E" transform="translate(463.2890625,52.59765625)"/>
<path d="M0 0 C2.5625 1.3671875 2.5625 1.3671875 3.5625 3.3671875 C2.24713339 5.79788801 0.87622328 8.13612205 -0.5625 10.4921875 C-6.69627154 20.95442173 -10.37475212 31.84280157 -11.78515625 43.9375 C-12.74591079 47.51587917 -13.99538799 49.54419563 -16.4375 52.3671875 C-19.5789523 54.11435641 -22.86534137 55.29933464 -26.25 56.4921875 C-33.5451297 59.11989953 -33.5451297 59.11989953 -40.44921875 62.609375 C-43.4375 64.3671875 -43.4375 64.3671875 -45.4375 64.3671875 C-55.70550635 43.4499044 -55.70550635 43.4499044 -58.4375 33.3671875 C-58.66050781 32.56796875 -58.88351563 31.76875 -59.11328125 30.9453125 C-61.1186007 22.59663561 -62.47342083 11.90906055 -58.9375 3.8671875 C-45.94227598 -17.31364025 -18.3553354 -8.05131757 0 0 Z " fill="#71D98B" transform="translate(98.4375,58.6328125)"/>
<path d="M0 0 C8.64494091 0.15976277 16.9591052 4.43744929 23.125 10.3125 C27.54274905 15.97628083 28.55827346 20.65961638 28.46484375 27.71875 C27.61989613 34.16754563 23.09113531 39.10145411 18.10546875 42.9921875 C9.3082267 48.85701554 -0.55157823 49.89503027 -10.875 48.3125 C-18.9145169 45.86491374 -25.30275312 41.41727883 -29.875 34.3125 C-32.39443443 29.03449838 -32.68011258 24.06905496 -31.875 18.3125 C-30.59210457 15.29769573 -28.97416189 12.819668 -26.875 10.3125 C-26.41867187 9.75304687 -25.96234375 9.19359375 -25.4921875 8.6171875 C-23.36041523 6.8973519 -22.02680307 6.98106827 -19.3125 6.9375 C-11.85920719 6.43330666 -6.70777532 0.72910601 0 0 Z " fill="#FDFEFD" transform="translate(339.875,134.6875)"/>
<path d="M0 0 C0.91845703 0.65548828 0.91845703 0.65548828 1.85546875 1.32421875 C5.482736 3.90999342 8.37982968 4.38340577 12.79296875 4.82421875 C17.31013632 5.36858193 19.83930431 5.82635729 22.85546875 9.32421875 C24.1171875 11.09765625 24.1171875 11.09765625 25.16796875 12.94921875 C25.53792969 13.57570312 25.90789062 14.2021875 26.2890625 14.84765625 C28.27218802 19.58952972 27.89281841 25.30672885 26.55078125 30.19921875 C23.44352111 37.23867534 17.55332741 42.0740872 10.73046875 45.38671875 C1.42563628 48.6699339 -9.48972671 48.57237637 -18.45703125 44.44921875 C-24.76146355 40.7947264 -30.04123912 35.78990457 -32.83203125 28.94921875 C-33.84428782 21.1009438 -32.15511084 15.36551226 -27.70703125 8.82421875 C-21.91553612 2.28035416 -8.41172954 -4.82463805 0 0 Z " fill="#FDFEFD" transform="translate(176.83203125,136.05078125)"/>
<path d="M0 0 C1.59134766 -0.00386719 1.59134766 -0.00386719 3.21484375 -0.0078125 C6.0625 0.125 6.0625 0.125 9.0625 1.125 C10.50817986 1.2168277 11.95765828 1.25566598 13.40625 1.2578125 C14.24027344 1.25910156 15.07429688 1.26039063 15.93359375 1.26171875 C17.23490234 1.25591797 17.23490234 1.25591797 18.5625 1.25 C19.43003906 1.25386719 20.29757812 1.25773438 21.19140625 1.26171875 C22.02542969 1.26042969 22.85945313 1.25914062 23.71875 1.2578125 C24.86053711 1.25612061 24.86053711 1.25612061 26.02539062 1.25439453 C28.26574188 1.1991715 28.26574188 1.1991715 31.0625 0.125 C42.22423644 -0.90576722 42.22423644 -0.90576722 45.9921875 1.20703125 C47.3125 2.5625 47.3125 2.5625 49.0625 5.125 C49.5575 5.62 49.5575 5.62 50.0625 6.125 C50.66941968 11.06706028 50.53324502 14.08960094 47.6875 18.25 C42.32670837 24.67283525 34.42665863 29.25651708 26.0625 30.125 C13.97945709 31.07345391 3.83690213 30.03550879 -6 22.125 C-9.76961993 18.50248719 -12.05540621 15.45822142 -12.375 10.125 C-12.22932657 6.06914499 -10.87484866 3.97595605 -7.9375 1.125 C-5.22094597 -0.23327701 -3.02960594 -0.0073445 0 0 Z " fill="#425660" transform="translate(236.9375,130.875)"/>
<path d="M0 0 C1.73046875 1.125 1.73046875 1.125 3.5 2.5 C5.93890707 4.38144259 6.93184709 4.98748212 10.0625 5.5625 C14.07272243 4.79458507 17.1073795 2.8926205 20 0 C23.85797355 -0.36395977 26.15988698 -0.56007535 29.4375 1.625 C31.51114192 4.77693571 31.66859841 6.28556438 31 10 C27.7317965 15.10656797 23.92491445 18.42880046 18 20 C10.09330571 20.87128351 2.0487981 21.56143478 -4.515625 16.34765625 C-5.00546875 15.90292969 -5.4953125 15.45820313 -6 15 C-6.825 14.401875 -7.65 13.80375 -8.5 13.1875 C-10.91427414 9.66668355 -10.53505852 7.21358587 -10 3 C-7.19523346 -0.45202035 -4.25986351 -0.66821388 0 0 Z " fill="#425560" transform="translate(310,121)"/>
<path d="M0 0 C1.31714278 0.81433309 2.60754801 1.67279841 3.875 2.5625 C6.81356658 4.5402733 8.62673502 5.38437706 12.1875 5.0625 C16.14739658 3.95892227 17.87757509 2.54724137 21 0 C24.66322334 -0.59807728 26.26456309 -0.48384007 29.375 1.5625 C31 4 31 4 31.75 7.3125 C30.78920887 12.03638971 28.86508976 13.53475664 25.23828125 16.51953125 C18.15568719 21.20417898 10.16312588 20.931094 2 20 C-3.21228318 17.86801697 -6.92361426 14.70724082 -10 10 C-10.53293835 6.34556561 -10.4753727 4.69477548 -8.375 1.625 C-5.18904214 -0.5548659 -3.81239547 -0.65983768 0 0 Z " fill="#425560" transform="translate(181,121)"/>
</svg>
